<!-- TODO: make unique -->
<svg xmlns="http://www.w3.org/2000/svg" viewBox="2 3 20 18">
	<path fill="#8a9eac" fill-rule="evenodd"
		d="M7.33 3c-.43 0-.85.14-1.17.42C4.96 4.5 2 7.6 2 12c0 4.4 2.95 7.5 4.16 8.58.32.28.74.42 1.17.42h9.34c.43 0 .85-.14 1.17-.42C19.04 19.5 22 16.4 22 12c0-4.4-2.95-7.5-4.16-8.58A1.73 1.73 0 0 0 16.67 3zM12 17.25a1.25 1.25 0 1 0 0-2.5 1.25 1.25 0 0 0 0 2.5z"
		clip-rule="evenodd" />
	<path fill="#6d7f8c"
		d="M7.04 16.93c.34.38.84.57 1.36.57h7.2c.52 0 1.02-.2 1.36-.57a9.23 9.23 0 0 0 2.52-5.43l.02.5c0 2.61-1.42 4.7-2.54 5.93-.34.38-.84.57-1.36.57H8.4c-.52 0-1.02-.2-1.36-.57C5.92 16.7 4.5 14.6 4.5 12c0-.17 0-.34.02-.5a9.23 9.23 0 0 0 2.52 5.43z" />
	<path fill="#6d7f8c" d="M14.72 16.38a2.75 2.75 0 0 1-5.44 0 2.75 2.75 0 1 0 5.45 0z" />
	<path fill="#7c8d99" fill-rule="evenodd"
		d="M14.75 16a2.75 2.75 0 1 1-5.5 0 2.75 2.75 0 0 1 5.5 0zM12 17.25a1.25 1.25 0 1 0 0-2.5 1.25 1.25 0 0 0 0 2.5z"
		clip-rule="evenodd" />
	<circle cx="12" cy="16" r="1.25" fill="#8697a3" fill-opacity=".5" />
	<path fill="#7c8d99" fill-rule="evenodd"
		d="M8.4 5.5c-.52 0-1.02.2-1.36.57C5.92 7.3 4.5 9.4 4.5 12s1.42 4.7 2.54 5.93c.34.38.84.57 1.36.57h7.2c.52 0 1.02-.2 1.36-.57C18.08 16.7 19.5 14.6 19.5 12s-1.42-4.7-2.54-5.93a1.82 1.82 0 0 0-1.36-.57zM7.33 3c-.43 0-.85.14-1.17.42C4.96 4.5 2 7.6 2 12c0 4.4 2.95 7.5 4.16 8.58.32.28.74.42 1.17.42h9.34c.43 0 .85-.14 1.17-.42C19.04 19.5 22 16.4 22 12c0-4.4-2.95-7.5-4.16-8.58A1.73 1.73 0 0 0 16.67 3z"
		clip-rule="evenodd" />
	<path fill="#7c8d99"
		d="M9.75 9.14c.24.5.03 1.1-.46 1.35l-1.63.86c-.5.25-1.1.04-1.33-.46s-.04-1.1.46-1.35l1.63-.86a.99.99 0 0 1 1.33.46z" />
	<path fill="#9fb3c0" d="M10 8c0-1.1.9-2 2-2h3a3 3 0 0 1 3 3v1a2 2 0 0 1-2 2h-4a2 2 0 0 1-2-2z" />
	<path fill="#9fb3c0" fill-rule="evenodd"
		d="M11.85 3.53c-.5.03-.88.41-.85.86.03.44.46.78.96.76H12a25.1 25.1 0 0 1 .77-.01l1.38-.02s1.05.01 1.48.05c.21.02.4.04.52.07l.16.04a5.91 5.91 0 0 1 1.97 2.07 15.47 15.47 0 0 1 .97 1.63v.03h.01c.2.41.73.6 1.19.42.46-.17.67-.65.48-1.06h-.01l-.02-.04a7.88 7.88 0 0 0-.27-.52c-.19-.33-.46-.8-.8-1.3a7.49 7.49 0 0 0-2.57-2.6 2.5 2.5 0 0 0-.7-.25 7.01 7.01 0 0 0-.75-.1c-.52-.04-1.65-.06-1.65-.06l-1.46.03H11.86z"
		clip-rule="evenodd" />
	<circle cx="9.75" cy="4.25" r=".75" fill="#8a9eac" />
</svg>
