<!-- TODO: make unique -->
<svg xmlns="http://www.w3.org/2000/svg" viewBox="3 3 18 18">
	<path fill="#ab6e57" fill-rule="evenodd"
		d="M6.414 3a1 1 0 0 0-.707.293L3.293 5.707A1 1 0 0 0 3 6.414v11.172a1 1 0 0 0 .293.707l2.414 2.414a1 1 0 0 0 .707.293h11.172a1 1 0 0 0 .707-.293l2.414-2.414a1 1 0 0 0 .293-.707V6.414a1 1 0 0 0-.293-.707l-2.414-2.414A1 1 0 0 0 17.586 3zM12 13.5a1.5 1.5 0 1 0 0-3 1.5 1.5 0 0 0 0 3z"
		clip-rule="evenodd" />
	<path fill="#c2866f"
		d="M10 9a2 2 0 0 1 2-2h4a2 2 0 0 1 2 2v1a2 2 0 0 1-2 2h-1a3 3 0 0 0-5-2.236z" />
	<path fill="#9f6854"
		d="m17.707 7.95-.657-.657A1 1 0 0 0 16.343 7H7.657a1 1 0 0 0-.707.293l-.657.657A1 1 0 0 0 6 8.657v-1a1 1 0 0 1 .293-.707l.657-.657A1 1 0 0 1 7.657 6h8.686a1 1 0 0 1 .707.293l.657.657a1 1 0 0 1 .293.707v1a1 1 0 0 0-.293-.707zM14.959 12.5a3 3 0 0 1-5.918 0 3 3 0 1 0 5.917 0z" />
	<g fill="#c2866f">
		<path fill-rule="evenodd"
			d="M15 12a3 3 0 1 1-6 0 3 3 0 0 1 6 0zm-3 1.5a1.5 1.5 0 1 0 0-3 1.5 1.5 0 0 0 0 3z"
			clip-rule="evenodd" />
		<circle cx="12" cy="12" r="1.5" fill-opacity=".5" />
		<path fill-rule="evenodd"
			d="M6.293 6.95A1 1 0 0 0 6 7.657v8.686a1 1 0 0 0 .293.707l.657.657a1 1 0 0 0 .707.293h8.686a1 1 0 0 0 .707-.293l.657-.657a1 1 0 0 0 .293-.707V7.657a1 1 0 0 0-.293-.707l-.657-.657A1 1 0 0 0 16.343 6H7.657a1 1 0 0 0-.707.293zM6.414 3a1 1 0 0 0-.707.293L3.293 5.707A1 1 0 0 0 3 6.414v11.172a1 1 0 0 0 .293.707l2.414 2.414a1 1 0 0 0 .707.293h11.172a1 1 0 0 0 .707-.293l2.414-2.414a1 1 0 0 0 .293-.707V6.414a1 1 0 0 0-.293-.707l-2.414-2.414A1 1 0 0 0 17.586 3z"
			clip-rule="evenodd" />
	</g>
	<path fill="#e6a58c" fill-rule="evenodd"
		d="M10.125 4.5c0-.483.392-.875.875-.875h6.086c.497 0 .974.198 1.326.55l1.414 1.413c.352.352.549.829.549 1.326V10.5a.875.875 0 0 1-1.75 0V6.914a.125.125 0 0 0-.037-.088l-1.414-1.414a.125.125 0 0 0-.088-.037H11a.875.875 0 0 1-.875-.875z"
		clip-rule="evenodd" />
	<circle cx="8.375" cy="4.475" r=".875" fill="#e5a48c" />
</svg>
