<!-- TODO: make unique -->
<svg xmlns="http://www.w3.org/2000/svg" viewBox="3 3 18 18">
	<path fill="#dd970e"
		d="M4 4.5c0-.28.22-.5.5-.5h15c.28 0 .5.22.5.5v1a.5.5 0 0 1-.5.5s-2 2.33-2 6 2 6 2 6c.28 0 .5.22.5.5v1a.5.5 0 0 1-.5.5h-15a.5.5 0 0 1-.5-.5v-1c0-.28.22-.5.5-.5 0 0 2-1.87 2-6s-2-6-2-6a.5.5 0 0 1-.5-.5z" />
	<path fill="#eca825"
		d="M10 12c0-.62-.03-1.21-.1-1.77l4.12 1.02v.13L9.93 13.4c.04-.45.06-.92.06-1.41zM9.8 14.6l4.2-2.1c.06 1.52.34 2.86.71 4H9.35c.18-.58.33-1.21.44-1.9z" />
	<path fill="#ffb72c"
		d="M14.02 11.25 9.9 10.23C9.8 9.22 9.6 8.3 9.35 7.5h5.36a14.56 14.56 0 0 0-.7 3.75z" />
	<path fill="#eca825" d="M6.26 5.5h11.55a12.21 12.21 0 0 0-.77 1.5h-10a10.6 10.6 0 0 0-.78-1.5z" />
	<path fill="#c78727" fill-rule="evenodd"
		d="M17.8 5.5H6.27A12.43 12.43 0 0 1 8 12a12.43 12.43 0 0 1-1.74 6.5h11.55a12.62 12.62 0 0 1 0-13zM20.5 18s-2-2.33-2-6 2-6 2-6a.5.5 0 0 0 .5-.5v-2a.5.5 0 0 0-.5-.5h-17a.5.5 0 0 0-.5.5v2c0 .28.22.5.5.5 0 0 2 1.87 2 6s-2 6-2 6a.5.5 0 0 0-.5.5v2c0 .28.22.5.5.5h17a.5.5 0 0 0 .5-.5v-2a.5.5 0 0 0-.5-.5z"
		clip-rule="evenodd" />
	<path fill="#ffb72c"
		d="M8 4.25c0-.41.34-.75.75-.75h11a.75.75 0 0 1 0 1.5h-11A.75.75 0 0 1 8 4.25z" />
	<circle cx="6.75" cy="4.25" r=".75" fill="#eca825" />
</svg>
