<!-- TODO: make unique -->
<svg xmlns="http://www.w3.org/2000/svg" viewBox="3 2 18 20">
	<path fill="#b5b5b5"
		d="M9.96 3.3c.17-.19.4-.3.67-.3h2.74c.26 0 .5.11.67.3l5.74 6.65a.9.9 0 0 1 .22.59v2.92a.9.9 0 0 1-.22.6l-5.74 6.63c-.17.2-.4.31-.67.31h-2.74a.88.88 0 0 1-.67-.3l-5.74-6.65a.9.9 0 0 1-.22-.59v-2.92a.9.9 0 0 1 .22-.6z" />
	<path fill="#a3a3a3"
		d="m10.84 18.16-5.1-5.82a1 1 0 0 1-.24-.66v1a1 1 0 0 0 .25.66l5.09 5.82a1 1 0 0 0 .75.34h.82a1 1 0 0 0 .75-.34l5.1-5.82a1 1 0 0 0 .24-.66v-1a1 1 0 0 1-.25.66l-5.09 5.82a1 1 0 0 1-.75.34h-.82a1 1 0 0 1-.75-.34z" />
	<path fill="#949494" fill-rule="evenodd"
		d="M11.59 4.5a1 1 0 0 0-.75.34l-5.1 5.82a1 1 0 0 0-.24.66v1.36a1 1 0 0 0 .25.66l5.09 5.82a1 1 0 0 0 .75.34h.82a1 1 0 0 0 .75-.34l5.1-5.82a1 1 0 0 0 .24-.66v-1.36a1 1 0 0 0-.25-.66l-5.09-5.82a1 1 0 0 0-.75-.34zM10.45 2a1 1 0 0 0-.75.34L3.25 9.72a1 1 0 0 0-.25.66v3.24a1 1 0 0 0 .25.66l6.45 7.38a1 1 0 0 0 .75.34h3.1a1 1 0 0 0 .75-.34l6.45-7.38a1 1 0 0 0 .25-.66v-3.24a1 1 0 0 0-.25-.66L14.3 2.34a1 1 0 0 0-.75-.34z"
		clip-rule="evenodd" />
	<path fill="#dcdcdc"
		d="M10.3 9.12a1 1 0 0 1 0-1.41l1.24-1.42a1 1 0 0 1 1.41 0l3.67 4.3a1 1 0 0 1 0 1.41l-1.41 1.41a1 1 0 0 1-1.42 0z" />
	<path fill="#ccc"
		d="M8.35 10.24a1.02 1.02 0 0 1 1.42.1l1.26 1.35a.99.99 0 0 1-.1 1.4c-.43.37-1.06.33-1.43-.09l-1.25-1.35a.99.99 0 0 1 .1-1.4zM12 2.47c.34-.26 1.5-.37 2 .03L18 7c.37.37.32.94-.1 1.26s-1.06.29-1.43-.08c0 0-2.74-3.31-3.57-3.99-.37-.3-.7-.15-1-.45-.3-.3-.24-1 .1-1.27z" />
	<circle cx="18.6" cy="9.25" r="1" fill="#b5b5b5" />
</svg>
