<svg xmlns="http://www.w3.org/2000/svg" viewBox="2 3 20 18">
	<path fill="#a59e98" fill-rule="evenodd"
		d="M2.5 21a.5.5 0 0 1-.44-.75l9.51-17a.49.49 0 0 1 .86 0l9.5 17a.5.5 0 0 1-.42.75zm9.5-5a1.25 1.25 0 1 0 0-2.5 1.25 1.25 0 0 0 0 2.5z"
		clip-rule="evenodd" />
	<path fill="#99938d" fill-rule="evenodd"
		d="M2.06 20.25a.5.5 0 0 0 .43.75h19.02a.5.5 0 0 0 .42-.75l-9.5-17a.49.49 0 0 0-.86 0zm10.16-12.3a.25.25 0 0 0-.44 0l-5.7 10.18c-.08.16.04.37.23.37h11.38c.2 0 .31-.2.22-.37z"
		clip-rule="evenodd" />
	<path fill="#857d76"
		d="M12 17.25a2.5 2.5 0 0 0 2.45-3 2.75 2.75 0 1 1-4.9 0 2.51 2.51 0 0 0 2.45 3z" />
	<circle cx="12" cy="14.75" r="1.25" fill="#a59e98" fill-opacity=".5" />
	<path fill="#b5ada7"
		d="M11.78 7.95c.1-.18.34-.18.44 0l5.7 10.18c.08.16-.04.37-.23.37h-.13l-5.34-9.55a.25.25 0 0 0-.44 0L6.44 18.5h-.13c-.2 0-.31-.2-.22-.37z" />
	<path fill="#b5ada7"
		d="M11.67 11.36c-.23-.42.15-1.89.57-2.12.14-.08.72.84.96 1.26l.52 1.14a.88.88 0 0 1-1.52.86z" />
	<path fill="#cec6bf"
		d="M11.43 5.62c-.24-.42.15-1.88.57-2.12.14-.08.72.84.95 1.26l3.07 5.45a.87.87 0 1 1-1.52.86z" />
</svg>
