<!-- TODO: make unique -->
<svg xmlns="http://www.w3.org/2000/svg" viewBox="0 0 12.17 14.83" class="w-{width} h-{height}">
	<path fill="var(--color-base-content)"
		d="M 3 0 H 1.2 A 1.2 1.2 0 0 0 0 1.2 V 13.6 a 1.2 1.2 0 0 0 1.2 1.2 H 11.4 a 0.8 0.8 0 0 0 0.8 -0.8 c 0 -0.4 -0.3 -1 -0.8 -1 H 2.1 c -0.3 0 -0.6 0 -0.6 -0.3 s 0.3 -1 0.6 -1 H 11 a 1.2 1.2 0 0 0 1.2 -1.2 V 1.2 A 1.2 1.2 0 0 0 11 0 H 3.1"></path>
	<path fill="var(--color-base-300)"
		d="M 4.3 2.2 A 11.7 11.7 0 0 1 6.2 2.1 a 3.1 3.1 0 0 1 2.1 0.5 A 1.7 1.7 0 0 1 8.9 4 A 1.8 1.8 0 0 1 7.6 5.7 v 0 A 1.7 1.7 0 0 1 8.6 7 a 13.3 13.3 0 0 0 0.5 1.9 H 7.8 a 9.6 9.6 0 0 1 -0.5 -1.6 c -0.2 -0.9 -0.5 -1.2 -1.2 -1.2 H 5.6 V 8.9 H 4.3 Z m 1.2 3 H 6.3 c 0.8 0 1.4 -0.4 1.4 -1.1 S 7.1 3 6.3 3 a 3.5 3.5 0 0 0 -0.8 0.1 Z"></path>
</svg>
